<svg width="24" height="25" viewBox="0 0 24 25" fill="none" xmlns="http://www.w3.org/2000/svg">
<mask id="mask0_2858_9335" style="mask-type:alpha" maskUnits="userSpaceOnUse" x="2" y="4" width="20" height="17">
<path d="M9.99473 19.8269V16.8269C9.99473 15.7223 10.8902 14.8269 11.9947 14.8269C13.0993 14.8269 13.9947 15.7223 13.9947 16.8269V19.8269C13.9947 20.3769 14.4447 20.8269 14.9947 20.8269H17.9947C18.5447 20.8269 18.9947 20.3769 18.9947 19.8269V14.5269C18.9947 13.588 19.7558 12.8269 20.6947 12.8269C21.1547 12.8269 21.3747 12.2569 21.0247 11.9569L12.6647 4.42687C12.2847 4.08687 11.7047 4.08687 11.3247 4.42687L2.96473 11.9569C2.62473 12.2569 2.83473 12.8269 3.29473 12.8269C4.23361 12.8269 4.99473 13.588 4.99473 14.5269V19.8269C4.99473 20.3769 5.44473 20.8269 5.99473 20.8269H8.99473C9.54473 20.8269 9.99473 20.3769 9.99473 19.8269Z" fill="black"/>
</mask>
<g mask="url(#mask0_2858_9335)">
<rect y="0.5" width="24" height="24" fill="url(#paint0_linear_2858_9335)"/>
</g>
<defs>
<linearGradient id="paint0_linear_2858_9335" x1="24" y1="24.5583" x2="0" y2="0.558302" gradientUnits="userSpaceOnUse">
<stop stop-color="#FF1843"/>
<stop offset="1" stop-color="#FF7E95"/>
</linearGradient>
</defs>
</svg>
